<svg xmlns="http://www.w3.org/2000/svg" viewBox="0 0 48 48" role="img" aria-labelledby="title">
  <title id="title">Google</title>
  <path fill="#FFC107" d="M43.6 20.1H42V20H24v8h11.3C33.7 32.7 29.2 36 24 36a12 12 0 1 1 8-21l5.7-5.6A20 20 0 1 0 44 24c0-1.3-.1-2.6-.4-3.9Z"/>
  <path fill="#FF3D00" d="m6.3 14.7 6.6 4.8A12 12 0 0 1 24 12c3.1 0 5.8 1.2 8 3l5.7-5.6A20 20 0 0 0 6.3 14.7Z"/>
  <path fill="#4CAF50" d="M24 44c5.2 0 9.9-2 13.4-5.2l-6.2-5.2A12 12 0 0 1 12.9 28l-6.5 5A20 20 0 0 0 24 44Z"/>
  <path fill="#1976D2" d="M43.6 20.1H42V20H24v8h11.3a12 12 0 0 1-4.1 5.6l6.2 5.2C37 39.2 44 34 44 24c0-1.3-.1-2.6-.4-3.9Z"/>
</svg>
